<svg fill="#000000" xmlns="http://www.w3.org/2000/svg" viewBox="0 0 26 26" width="50px" height="50px"><path d="M 12.1875 0 C 11.585938 0 11.1875 0.398438 11.1875 1 C 11.1875 1.398438 11.386719 1.707031 11.6875 1.90625 C 11.886719 2.007813 12.085938 2.199219 12.1875 2.5 L 12.1875 3.0625 C 11.417969 3.125 10.679688 3.242188 9.96875 3.46875 C 9.949219 3.285156 10.027344 3.066406 10.1875 2.90625 C 10.386719 2.707031 10.511719 2.300781 10.3125 2 C 10.113281 1.5 9.59375 1.300781 9.09375 1.5 L 7.59375 2.09375 C 7.09375 2.292969 6.894531 2.8125 7.09375 3.3125 C 7.195313 3.613281 7.507813 3.804688 7.90625 3.90625 C 8.132813 3.90625 8.292969 3.96875 8.40625 4.125 C 7.714844 4.484375 7.085938 4.933594 6.5 5.4375 L 6.09375 5 C 5.992188 4.699219 5.992188 4.386719 6.09375 4.1875 C 6.195313 3.789063 6.113281 3.488281 5.8125 3.1875 C 5.414063 2.789063 4.804688 2.789063 4.40625 3.1875 L 3.1875 4.40625 C 2.789063 4.804688 2.789063 5.414063 3.1875 5.8125 C 3.488281 6.113281 3.789063 6.101563 4.1875 6 C 4.386719 6 4.707031 5.988281 4.90625 6.1875 L 5.34375 6.59375 C 4.875 7.152344 4.464844 7.753906 4.125 8.40625 C 3.96875 8.269531 3.90625 8.054688 3.90625 7.90625 C 3.804688 7.507813 3.613281 7.195313 3.3125 7.09375 C 2.8125 6.894531 2.292969 7.09375 2.09375 7.59375 L 1.5 9.09375 C 1.300781 9.59375 1.5 10.113281 2 10.3125 C 2.300781 10.414063 2.707031 10.386719 2.90625 10.1875 C 3.066406 10.027344 3.285156 9.949219 3.46875 9.96875 C 3.238281 10.691406 3.089844 11.4375 3.03125 12.21875 L 2.5 12.1875 C 2.199219 12.1875 2.007813 11.988281 1.90625 11.6875 C 1.707031 11.386719 1.398438 11.09375 1 11.09375 C 0.398438 11.09375 0 11.492188 0 12.09375 L 0 13.8125 C 0 14.414063 0.398438 14.8125 1 14.8125 C 1.398438 14.8125 1.707031 14.613281 1.90625 14.3125 C 2.007813 14.113281 2.199219 13.914063 2.5 13.8125 L 3.0625 13.8125 C 3.125 14.582031 3.242188 15.320313 3.46875 16.03125 C 3.285156 16.050781 3.066406 15.972656 2.90625 15.8125 C 2.707031 15.613281 2.300781 15.488281 2 15.6875 C 1.5 15.886719 1.300781 16.40625 1.5 16.90625 L 2.09375 18.40625 C 2.292969 18.90625 2.8125 19.105469 3.3125 18.90625 C 3.613281 18.804688 3.804688 18.492188 3.90625 18.09375 C 3.90625 17.867188 3.96875 17.707031 4.125 17.59375 C 4.484375 18.285156 4.933594 18.914063 5.4375 19.5 L 5 19.90625 C 4.699219 20.007813 4.386719 20.007813 4.1875 19.90625 C 3.789063 19.804688 3.488281 19.886719 3.1875 20.1875 C 2.789063 20.585938 2.789063 21.195313 3.1875 21.59375 L 4.40625 22.8125 C 4.804688 23.210938 5.414063 23.210938 5.8125 22.8125 C 6.113281 22.511719 6.101563 22.210938 6 21.8125 C 6 21.613281 5.988281 21.292969 6.1875 21.09375 L 6.59375 20.65625 C 7.160156 21.132813 7.777344 21.53125 8.4375 21.875 C 8.308594 22.023438 8.078125 22.101563 7.90625 22.1875 C 7.507813 22.1875 7.195313 22.386719 7.09375 22.6875 C 6.894531 23.1875 7.09375 23.707031 7.59375 23.90625 L 9.09375 24.5 C 9.59375 24.699219 10.113281 24.5 10.3125 24 C 10.414063 23.699219 10.386719 23.292969 10.1875 23.09375 C 10.035156 22.941406 10.039063 22.742188 10.03125 22.5625 C 10.734375 22.78125 11.460938 22.910156 12.21875 22.96875 L 12.1875 23.5 C 12.1875 23.800781 11.988281 23.992188 11.6875 24.09375 C 11.386719 24.292969 11.09375 24.601563 11.09375 25 C 11.09375 25.601563 11.492188 26 12.09375 26 L 13.8125 26 C 14.414063 26 14.8125 25.601563 14.8125 25 C 14.8125 24.601563 14.613281 24.292969 14.3125 24.09375 C 14.113281 23.992188 13.914063 23.800781 13.8125 23.5 L 13.8125 22.9375 C 14.539063 22.878906 15.230469 22.769531 15.90625 22.5625 C 15.882813 22.714844 15.8125 22.875 15.6875 23 C 15.585938 23.300781 15.488281 23.699219 15.6875 24 C 15.886719 24.5 16.40625 24.699219 16.90625 24.5 L 18.40625 23.90625 C 18.90625 23.707031 19.105469 23.1875 18.90625 22.6875 C 18.804688 22.386719 18.492188 22.195313 18.09375 22.09375 C 17.867188 22.09375 17.707031 22.03125 17.59375 21.875 C 18.246094 21.535156 18.847656 21.125 19.40625 20.65625 L 19.8125 21.09375 C 20.011719 21.292969 20.007813 21.605469 19.90625 21.90625 C 19.804688 22.207031 19.886719 22.511719 20.1875 22.8125 C 20.585938 23.210938 21.195313 23.210938 21.59375 22.8125 L 22.8125 21.59375 C 23.210938 21.195313 23.210938 20.585938 22.8125 20.1875 C 22.511719 19.886719 22.210938 19.898438 21.8125 20 C 21.511719 20.101563 21.300781 20.105469 21 19.90625 L 20.5625 19.5 C 21.074219 18.90625 21.511719 18.261719 21.875 17.5625 C 21.96875 17.695313 22.027344 17.867188 22.09375 18 C 22.195313 18.5 22.386719 18.804688 22.6875 18.90625 C 23.1875 19.105469 23.707031 18.90625 23.90625 18.40625 L 24.5 16.90625 C 24.699219 16.40625 24.5 15.886719 24 15.6875 C 23.699219 15.585938 23.292969 15.613281 23.09375 15.8125 C 22.941406 15.964844 22.742188 15.960938 22.5625 15.96875 C 22.78125 15.265625 22.910156 14.539063 22.96875 13.78125 L 23.5 13.8125 C 23.800781 13.8125 23.992188 14.011719 24.09375 14.3125 C 24.292969 14.613281 24.601563 14.90625 25 14.90625 C 25.601563 14.90625 26 14.507813 26 13.90625 L 26 12.1875 C 26 11.585938 25.601563 11.1875 25 11.1875 C 24.601563 11.1875 24.292969 11.386719 24.09375 11.6875 C 23.992188 11.886719 23.800781 12.085938 23.5 12.1875 L 22.9375 12.1875 C 22.875 11.417969 22.757813 10.679688 22.53125 9.96875 C 22.695313 9.984375 22.867188 10.054688 23 10.1875 C 23.300781 10.386719 23.699219 10.511719 24 10.3125 C 24.5 10.113281 24.699219 9.59375 24.5 9.09375 L 23.90625 7.59375 C 23.707031 7.09375 23.1875 6.894531 22.6875 7.09375 C 22.386719 7.195313 22.195313 7.507813 22.09375 7.90625 C 22.09375 8.132813 22.03125 8.292969 21.875 8.40625 C 21.515625 7.714844 21.066406 7.085938 20.5625 6.5 L 21 6.09375 C 21.300781 5.992188 21.613281 5.992188 21.8125 6.09375 C 22.210938 6.195313 22.511719 6.113281 22.8125 5.8125 C 23.210938 5.414063 23.210938 4.804688 22.8125 4.40625 L 21.59375 3.1875 C 21.195313 2.789063 20.585938 2.789063 20.1875 3.1875 C 19.886719 3.488281 19.898438 3.789063 20 4.1875 C 20 4.386719 20.011719 4.707031 19.8125 4.90625 L 19.40625 5.34375 C 18.839844 4.867188 18.222656 4.46875 17.5625 4.125 C 17.695313 4.03125 17.867188 3.972656 18 3.90625 C 18.5 3.804688 18.804688 3.613281 18.90625 3.3125 C 19.105469 2.8125 18.90625 2.292969 18.40625 2.09375 L 16.90625 1.5 C 16.40625 1.300781 15.886719 1.5 15.6875 2 C 15.585938 2.300781 15.613281 2.707031 15.8125 2.90625 C 15.972656 3.066406 16.050781 3.285156 16.03125 3.46875 C 15.308594 3.238281 14.5625 3.089844 13.78125 3.03125 L 13.8125 2.5 C 13.8125 2.199219 14.011719 2.007813 14.3125 1.90625 C 14.613281 1.707031 14.90625 1.398438 14.90625 1 C 14.90625 0.398438 14.507813 0 13.90625 0 Z M 13 5 C 17.429688 5 21 8.570313 21 13 C 21 17.429688 17.429688 21 13 21 C 8.570313 21 5 17.429688 5 13 C 5 8.570313 8.570313 5 13 5 Z M 13 7 C 12.449219 7 12 7.449219 12 8 C 12 8.550781 12.449219 9 13 9 C 13.550781 9 14 8.550781 14 8 C 14 7.449219 13.550781 7 13 7 Z M 9.5 8.5 C 8.949219 8.5 8.5 8.949219 8.5 9.5 C 8.5 10.050781 8.949219 10.5 9.5 10.5 C 10.050781 10.5 10.5 10.050781 10.5 9.5 C 10.5 8.949219 10.050781 8.5 9.5 8.5 Z M 16.5 8.5 C 15.949219 8.5 15.5 8.949219 15.5 9.5 C 15.5 10.050781 15.949219 10.5 16.5 10.5 C 17.050781 10.5 17.5 10.050781 17.5 9.5 C 17.5 8.949219 17.050781 8.5 16.5 8.5 Z M 8 12 C 7.449219 12 7 12.449219 7 13 C 7 13.550781 7.449219 14 8 14 C 8.550781 14 9 13.550781 9 13 C 9 12.449219 8.550781 12 8 12 Z M 13 12 C 12.449219 12 12 12.449219 12 13 C 12 13.550781 12.449219 14 13 14 C 13.550781 14 14 13.550781 14 13 C 14 12.449219 13.550781 12 13 12 Z M 18 12 C 17.449219 12 17 12.449219 17 13 C 17 13.550781 17.449219 14 18 14 C 18.550781 14 19 13.550781 19 13 C 19 12.449219 18.550781 12 18 12 Z M 9.5 15.5 C 8.949219 15.5 8.5 15.949219 8.5 16.5 C 8.5 17.050781 8.949219 17.5 9.5 17.5 C 10.050781 17.5 10.5 17.050781 10.5 16.5 C 10.5 15.949219 10.050781 15.5 9.5 15.5 Z M 16.5 15.5 C 15.949219 15.5 15.5 15.949219 15.5 16.5 C 15.5 17.050781 15.949219 17.5 16.5 17.5 C 17.050781 17.5 17.5 17.050781 17.5 16.5 C 17.5 15.949219 17.050781 15.5 16.5 15.5 Z M 13 17 C 12.449219 17 12 17.449219 12 18 C 12 18.550781 12.449219 19 13 19 C 13.550781 19 14 18.550781 14 18 C 14 17.449219 13.550781 17 13 17 Z"/></svg>